<?xml version="1.0" encoding="UTF-8"?>
<svg xmlns="http://www.w3.org/2000/svg" width="64" height="64" viewBox="0 0 64 64" fill="none">
  <path d="M64 36.8C61.6 36 59.2 35.2 56.8 35.2C48 35.2 40.8 40.8 36 40.8C31.2 40.8 28.8 38.4 24 38.4C16 38.4 8 44.8 8 44.8V8C8 8 16 14.4 24 14.4C28.8 14.4 32.8 12 36 12C40.8 12 48 16.8 56.8 16.8C59.2 16.8 61.6 16 64 15.2V36.8Z" fill="black"/>
  <path d="M8 56C12.8 52 19.2 48.8 24 48.8C28.8 48.8 31.2 51.2 36 51.2C40.8 51.2 48 45.6 56.8 45.6C59.2 45.6 61.6 46.4 64 47.2V36.8C61.6 36 59.2 35.2 56.8 35.2C48 35.2 40.8 40.8 36 40.8C31.2 40.8 28.8 38.4 24 38.4C19.2 38.4 12.8 41.6 8 45.6V56Z" fill="black"/>
</svg>
