<?xml version="1.0" encoding="UTF-8"?>
<svg xmlns="http://www.w3.org/2000/svg" width="64" height="64" viewBox="0 0 64 64" fill="none">
  <path d="M32 12.8C23.4667 12.8 18.1333 16.9333 16 25.2C19.2 21.0667 23.0667 19.4667 27.6 20.4C30.2667 21 32.1333 22.9333 34.2667 25.0667C37.6 28.5333 41.6 32.8 50.1333 32.8C58.6667 32.8 64 28.6667 66.1333 20.4C62.9333 24.5333 59.0667 26.1333 54.5333 25.2C51.8667 24.6 50 22.6667 47.8667 20.5333C44.5333 17.0667 40.5333 12.8 32 12.8ZM16 32.8C7.46667 32.8 2.13333 36.9333 0 45.2C3.2 41.0667 7.06667 39.4667 11.6 40.4C14.2667 41 16.1333 42.9333 18.2667 45.0667C21.6 48.5333 25.6 52.8 34.1333 52.8C42.6667 52.8 48 48.6667 50.1333 40.4C46.9333 44.5333 43.0667 46.1333 38.5333 45.2C35.8667 44.6 34 42.6667 31.8667 40.5333C28.5333 37.0667 24.5333 32.8 16 32.8Z" fill="#06B6D4"/>
</svg>
