<?xml version="1.0" encoding="UTF-8"?>
<svg xmlns="http://www.w3.org/2000/svg" width="64" height="64" viewBox="0 0 64 64" fill="none">
  <path d="M32 0C31.2 0 30.4 0 29.6 0.8L17.6 7.2C16 8 16 9.6 16 10.4V26.4C16 27.2 16 28.8 17.6 29.6L29.6 36C30.4 36.8 32 36.8 32.8 36L44.8 29.6C46.4 28.8 46.4 27.2 46.4 26.4V10.4C46.4 9.6 46.4 8 44.8 7.2L32.8 0.8C32 0 32 0 32 0Z" fill="#689F63"/>
  <path d="M56.8 16.8C56 16.8 55.2 16.8 54.4 17.6L48 21.6C46.4 22.4 46.4 24 46.4 24.8V32.8C46.4 33.6 46.4 35.2 48 36L54.4 40C56 40.8 57.6 40.8 58.4 40L64.8 36C66.4 35.2 66.4 33.6 66.4 32.8V24.8C66.4 24 66.4 22.4 64.8 21.6L58.4 17.6C57.6 16.8 56.8 16.8 56.8 16.8Z" fill="#689F63"/>
  <path d="M56.8 48C56 48 55.2 48 54.4 48.8L48 52.8C46.4 53.6 46.4 55.2 46.4 56V64C46.4 64.8 46.4 66.4 48 67.2L54.4 71.2C56 72 57.6 72 58.4 71.2L64.8 67.2C66.4 66.4 66.4 64.8 66.4 64V56C66.4 55.2 66.4 53.6 64.8 52.8L58.4 48.8C57.6 48 56.8 48 56.8 48Z" fill="#689F63"/>
  <path d="M8 48C7.2 48 6.4 48 5.6 48.8L-0.8 52.8C-2.4 53.6 -2.4 55.2 -2.4 56V64C-2.4 64.8 -2.4 66.4 -0.8 67.2L5.6 71.2C7.2 72 8.8 72 9.6 71.2L16 67.2C17.6 66.4 17.6 64.8 17.6 64V56C17.6 55.2 17.6 53.6 16 52.8L9.6 48.8C8.8 48 8 48 8 48Z" fill="#689F63"/>
  <path d="M8 16.8C7.2 16.8 6.4 16.8 5.6 17.6L-0.8 21.6C-2.4 22.4 -2.4 24 -2.4 24.8V32.8C-2.4 33.6 -2.4 35.2 -0.8 36L5.6 40C7.2 40.8 8.8 40.8 9.6 40L16 36C17.6 35.2 17.6 33.6 17.6 32.8V24.8C17.6 24 17.6 22.4 16 21.6L9.6 17.6C8.8 16.8 8 16.8 8 16.8Z" fill="#689F63"/>
  <path d="M32 48C31.2 48 30.4 48 29.6 48.8L17.6 55.2C16 56 16 57.6 16 58.4V74.4C16 75.2 16 76.8 17.6 77.6L29.6 84C30.4 84.8 32 84.8 32.8 84L44.8 77.6C46.4 76.8 46.4 75.2 46.4 74.4V58.4C46.4 57.6 46.4 56 44.8 55.2L32.8 48.8C32 48 32 48 32 48Z" fill="#689F63"/>
</svg>
