<?xml version="1.0" encoding="UTF-8"?>
<svg xmlns="http://www.w3.org/2000/svg" width="64" height="64" viewBox="0 0 64 64" fill="none">
  <path d="M12 0H52C58.6274 0 64 5.37258 64 12V52C64 58.6274 58.6274 64 52 64H12C5.37258 64 0 58.6274 0 52V12C0 5.37258 5.37258 0 12 0Z" fill="#7952B3"/>
  <path d="M32.7988 14.4H19.1988V49.6H33.5988C37.1988 49.6 40.3988 48.4 42.7988 46.4C45.1988 44.4 46.3988 41.2 46.3988 37.2C46.3988 33.6 45.1988 30.8 42.7988 28.8C40.3988 26.8 37.5988 25.6 33.9988 25.6C31.1988 25.6 28.7988 25.2 26.7988 24.4V21.6C28.3988 22 30.3988 22.4 32.7988 22.4C35.1988 22.4 37.1988 21.6 38.7988 20.4C40.3988 19.2 41.1988 17.2 41.1988 14.8C41.1988 12.4 40.3988 10.8 38.7988 9.6C37.1988 8.4 35.1988 8 32.7988 8C30.3988 8 28.3988 8.4 26.7988 9.2V14.4H32.7988ZM27.1988 29.2H33.1988C35.1988 29.2 36.7988 29.6 37.9988 30.8C39.1988 32 39.5988 33.6 39.5988 36C39.5988 38.4 38.7988 40.4 37.5988 41.6C36.3988 42.8 34.3988 43.6 31.9988 43.6H27.1988V29.2Z" fill="white"/>
</svg>
