<?xml version="1.0" encoding="UTF-8"?>
<svg xmlns="http://www.w3.org/2000/svg" width="64" height="64" viewBox="0 0 64 64" fill="none">
  <path d="M5.33333 32C5.33333 17.2724 17.2724 5.33333 32 5.33333C46.7276 5.33333 58.6667 17.2724 58.6667 32C58.6667 46.7276 46.7276 58.6667 32 58.6667C17.2724 58.6667 5.33333 46.7276 5.33333 32Z" fill="#00758F"/>
  <path d="M15.4667 42.6667H13.3333L13.0667 40.5333C12.5333 40.8 12 41.0667 11.4667 41.3333C10.6667 41.6 9.86667 41.8667 9.06667 42C8.53333 42.1333 8 42.1333 7.46667 42.1333C6.93333 42.1333 6.4 42 5.86667 41.7333C5.46667 41.4667 5.06667 41.0667 4.8 40.6667C4.53333 40.2667 4.4 39.7333 4.4 39.2C4.4 38.6667 4.53333 38.1333 4.8 37.7333C5.06667 37.3333 5.46667 36.9333 5.86667 36.6667C6.26667 36.4 6.8 36.1333 7.33333 36C7.86667 35.8667 8.4 35.7333 8.93333 35.6C9.73333 35.4667 10.5333 35.3333 11.3333 35.2C11.8667 35.0667 12.4 35.0667 12.9333 34.9333C13.3333 34.8 13.7333 34.6667 14.1333 34.4C14.1333 34 14.1333 33.7333 14 33.3333C13.8667 33.0667 13.7333 32.8 13.4667 32.5333C13.2 32.2667 12.9333 32.1333 12.5333 32C12.1333 31.8667 11.7333 31.8667 11.3333 31.8667C10.6667 31.8667 10 32 9.46667 32.2667C8.93333 32.5333 8.53333 33.0667 8.4 33.6H6.26667C6.26667 33.0667 6.4 32.5333 6.66667 32.1333C6.93333 31.7333 7.33333 31.3333 7.73333 31.0667C8.13333 30.8 8.66667 30.5333 9.2 30.4C9.73333 30.2667 10.2667 30.2667 10.8 30.2667C11.2 30.2667 11.6 30.2667 12 30.4C12.4 30.5333 12.8 30.6667 13.2 30.8C13.6 31.0667 13.8667 31.3333 14.1333 31.6C14.4 32 14.5333 32.4 14.5333 32.9333V39.0667C14.5333 39.4667 14.5333 39.8667 14.6667 40.2667C14.8 40.6667 14.9333 41.0667 15.2 41.3333L15.4667 42.6667ZM12.1333 36C11.7333 36.1333 11.3333 36.2667 10.9333 36.2667C10.4 36.4 9.86667 36.5333 9.33333 36.6667C8.93333 36.8 8.53333 36.9333 8.13333 37.0667C7.73333 37.2 7.46667 37.4667 7.2 37.7333C6.93333 38 6.8 38.4 6.8 38.8C6.8 39.0667 6.93333 39.3333 7.06667 39.6C7.2 39.8667 7.46667 40 7.73333 40.1333C8 40.2667 8.4 40.2667 8.66667 40.2667C9.2 40.2667 9.73333 40.1333 10.1333 40C10.5333 39.8667 10.9333 39.6 11.2 39.3333C11.4667 39.0667 11.7333 38.8 11.8667 38.4C12 38.1333 12 37.7333 12 37.3333V36Z" fill="white"/>
  <path d="M17.3333 42.6667V30.5333H19.4667V32.1333C19.7333 31.7333 20.1333 31.3333 20.5333 31.0667C21.0667 30.6667 21.6 30.5333 22.2667 30.5333C22.9333 30.5333 23.6 30.6667 24.1333 31.0667C24.6667 31.4667 25.0667 32 25.3333 32.6667C25.6 32.1333 26 31.6 26.5333 31.2C27.0667 30.8 27.7333 30.5333 28.4 30.5333C28.9333 30.5333 29.4667 30.6667 29.8667 30.8C30.2667 31.0667 30.6667 31.3333 30.9333 31.7333C31.2 32.1333 31.4667 32.5333 31.6 33.0667C31.7333 33.6 31.7333 34.1333 31.7333 34.6667V42.6667H29.6V35.3333C29.6 35 29.6 34.6667 29.4667 34.4C29.3333 34.1333 29.2 33.8667 29.0667 33.6C28.9333 33.3333 28.6667 33.2 28.4 33.0667C28.1333 32.9333 27.8667 32.9333 27.6 32.9333C27.0667 32.9333 26.5333 33.2 26.1333 33.6C25.7333 34 25.4667 34.6667 25.4667 35.3333V42.6667H23.3333V35.3333C23.3333 35 23.3333 34.6667 23.2 34.4C23.0667 34.1333 22.9333 33.8667 22.8 33.6C22.6667 33.3333 22.4 33.2 22.1333 33.0667C21.8667 32.9333 21.6 32.9333 21.3333 32.9333C21.0667 32.9333 20.8 33.0667 20.5333 33.2C20.2667 33.3333 20 33.6 19.8667 33.8667C19.7333 34.1333 19.6 34.4 19.4667 34.6667C19.3333 34.9333 19.3333 35.2 19.3333 35.4667V42.6667H17.3333Z" fill="white"/>
  <path d="M34.6667 36.5333C34.6667 37.0667 34.8 37.6 35.0667 38C35.3333 38.4 35.6 38.8 36 39.0667C36.4 39.3333 36.8 39.6 37.3333 39.7333C37.7333 39.8667 38.2667 40 38.6667 40C39.3333 40 40 39.8667 40.5333 39.6C41.0667 39.3333 41.6 38.9333 42 38.4L43.4667 39.7333C42.9333 40.4 42.2667 40.9333 41.4667 41.3333C40.6667 41.7333 39.7333 41.8667 38.8 41.8667C38 41.8667 37.2 41.7333 36.5333 41.4667C35.8667 41.2 35.2 40.8 34.6667 40.2667C34.1333 39.7333 33.7333 39.0667 33.4667 38.4C33.2 37.7333 33.0667 36.9333 33.0667 36.1333C33.0667 35.3333 33.2 34.5333 33.4667 33.8667C33.7333 33.2 34.1333 32.5333 34.6667 32C35.2 31.4667 35.8667 31.0667 36.5333 30.8C37.2 30.5333 38 30.4 38.8 30.4C39.6 30.4 40.2667 30.5333 40.9333 30.8C41.6 31.0667 42.1333 31.4667 42.6667 32C43.2 32.5333 43.6 33.2 43.8667 33.8667C44.1333 34.5333 44.2667 35.3333 44.2667 36.1333V36.5333H34.6667ZM42.6667 34.9333C42.6667 34.5333 42.5333 34.1333 42.4 33.8667C42.2667 33.4667 42 33.2 41.7333 32.9333C41.4667 32.6667 41.2 32.5333 40.8 32.4C40.4 32.2667 40 32.2667 39.6 32.2667C39.2 32.2667 38.8 32.2667 38.4 32.4C38 32.5333 37.7333 32.6667 37.4667 32.9333C37.2 33.2 36.9333 33.4667 36.8 33.8667C36.6667 34.2667 36.5333 34.6667 36.5333 35.0667H42.6667V34.9333Z" fill="white"/>
  <path d="M46.6667 42.6667V30.5333H48.8V32.1333C49.2 31.6 49.7333 31.2 50.2667 30.9333C50.8 30.6667 51.4667 30.5333 52.1333 30.5333C52.8 30.5333 53.4667 30.6667 54 31.0667C54.5333 31.4667 55.0667 32 55.3333 32.6667C55.6 33.3333 55.8667 34 56 34.8C56.1333 35.6 56.1333 36.4 56.1333 37.2C56.1333 38 56.1333 38.8 56 39.6C55.8667 40.4 55.6 41.0667 55.3333 41.7333C55.0667 42.4 54.5333 42.9333 54 43.3333C53.4667 43.7333 52.8 43.8667 52.1333 43.8667C51.4667 43.8667 50.8 43.7333 50.2667 43.4667C49.7333 43.2 49.2 42.8 48.8 42.2667V48H46.6667V42.6667ZM54 37.2C54 36.6667 54 36.1333 53.8667 35.6C53.7333 35.0667 53.6 34.6667 53.3333 34.2667C53.0667 33.8667 52.8 33.6 52.4 33.3333C52 33.0667 51.6 33.0667 51.0667 33.0667C50.5333 33.0667 50.1333 33.2 49.7333 33.3333C49.3333 33.6 49.0667 33.8667 48.8 34.2667C48.5333 34.6667 48.4 35.0667 48.2667 35.6C48.1333 36.1333 48.1333 36.6667 48.1333 37.2C48.1333 37.7333 48.1333 38.2667 48.2667 38.8C48.4 39.3333 48.5333 39.7333 48.8 40.1333C49.0667 40.5333 49.3333 40.8 49.7333 41.0667C50.1333 41.3333 50.5333 41.3333 51.0667 41.3333C51.6 41.3333 52 41.2 52.4 41.0667C52.8 40.8 53.0667 40.5333 53.3333 40.1333C53.6 39.7333 53.7333 39.3333 53.8667 38.8C54 38.2667 54 37.7333 54 37.2Z" fill="white"/>
</svg>
