<?xml version="1.0" encoding="UTF-8"?>
<svg xmlns="http://www.w3.org/2000/svg" width="64" height="64" viewBox="0 0 64 64" fill="none">
  <path d="M32 0C14.3269 0 0 14.3269 0 32C0 49.6731 14.3269 64 32 64C49.6731 64 64 49.6731 64 32C64 14.3269 49.6731 0 32 0ZM32 56C18.7452 56 8 45.2548 8 32C8 18.7452 18.7452 8 32 8C45.2548 8 56 18.7452 56 32C56 45.2548 45.2548 56 32 56Z" fill="#F80000"/>
  <path d="M19.2 32C19.2 25.0365 24.8365 19.4 31.8 19.4H32.2C39.1635 19.4 44.8 25.0365 44.8 32C44.8 38.9635 39.1635 44.6 32.2 44.6H31.8C24.8365 44.6 19.2 38.9635 19.2 32Z" fill="#F80000"/>
</svg>
