<?xml version="1.0" encoding="UTF-8"?>
<svg xmlns="http://www.w3.org/2000/svg" width="64" height="64" viewBox="0 0 64 64" fill="none">
  <path d="M32 5.6C32 5.6 14.4 18.4 14.4 36.8C14.4 47.2 20 53.6 24.8 56.8C26.4 58 27.6 58.4 28.8 58.4V64C40 60 49.6 49.6 49.6 36.8C49.6 18.4 32 5.6 32 5.6ZM31.2 52.8C31.2 52.8 30.4 52 29.6 50.4C28.8 48.8 28 46.4 28 46.4C28 46.4 35.2 44 35.2 36.8C35.2 29.6 30.4 27.2 28.8 25.6C28 24.8 28 24 28 23.2C28 22.4 28.8 20.8 29.6 19.2C30.4 17.6 31.2 16.8 31.2 16.8C31.2 16.8 32.8 20 33.6 20.8C34.4 21.6 36 23.2 36 24.8C36 26.4 36 28 36 28.8C36 29.6 37.6 31.2 39.2 32.8C40.8 34.4 42.4 36.8 42.4 40.8C42.4 44.8 40 48 36.8 50.4C33.6 52.8 31.2 52.8 31.2 52.8Z" fill="#13AA52"/>
</svg>
